<svg id="visual" viewBox="0 0 900 450" width="900" height="450" xmlns="http://www.w3.org/2000/svg" xmlns:xlink="http://www.w3.org/1999/xlink" version="1.1"><rect x="0" y="0" width="900" height="450" fill="#4c79bd"></rect><path d="M0 245L30 240.8C60 236.7 120 228.3 180 208.3C240 188.3 300 156.7 360 160.7C420 164.7 480 204.3 540 220.3C600 236.3 660 228.7 720 208.5C780 188.3 840 155.7 870 139.3L900 123L900 451L870 451C840 451 780 451 720 451C660 451 600 451 540 451C480 451 420 451 360 451C300 451 240 451 180 451C120 451 60 451 30 451L0 451Z" fill="#2764bf" stroke-linecap="round" stroke-linejoin="miter"></path></svg>