<svg id="visual" viewBox="0 0 960 540" width="960" height="540" xmlns="http://www.w3.org/2000/svg" xmlns:xlink="http://www.w3.org/1999/xlink" version="1.1"><rect x="0" y="0" width="960" height="540" fill="#4c79bd"></rect><path d="M0 264L22.8 267.8C45.7 271.7 91.3 279.3 137 275.8C182.7 272.3 228.3 257.7 274 247.8C319.7 238 365.3 233 411.2 231.2C457 229.3 503 230.7 548.8 215.2C594.7 199.7 640.3 167.3 686 168.5C731.7 169.7 777.3 204.3 823 211.2C868.7 218 914.3 197 937.2 186.5L960 176L960 541L937.2 541C914.3 541 868.7 541 823 541C777.3 541 731.7 541 686 541C640.3 541 594.7 541 548.8 541C503 541 457 541 411.2 541C365.3 541 319.7 541 274 541C228.3 541 182.7 541 137 541C91.3 541 45.7 541 22.8 541L0 541Z" fill="#2f67bc"></path><path d="M0 284L22.8 281C45.7 278 91.3 272 137 273.5C182.7 275 228.3 284 274 276.5C319.7 269 365.3 245 411.2 250.8C457 256.7 503 292.3 548.8 294.3C594.7 296.3 640.3 264.7 686 259.7C731.7 254.7 777.3 276.3 823 284.2C868.7 292 914.3 286 937.2 283L960 280L960 541L937.2 541C914.3 541 868.7 541 823 541C777.3 541 731.7 541 686 541C640.3 541 594.7 541 548.8 541C503 541 457 541 411.2 541C365.3 541 319.7 541 274 541C228.3 541 182.7 541 137 541C91.3 541 45.7 541 22.8 541L0 541Z" fill="#2460bb"></path><path d="M0 310L22.8 314C45.7 318 91.3 326 137 329.2C182.7 332.3 228.3 330.7 274 325.5C319.7 320.3 365.3 311.7 411.2 310.7C457 309.7 503 316.3 548.8 322.8C594.7 329.3 640.3 335.7 686 345.3C731.7 355 777.3 368 823 367.5C868.7 367 914.3 353 937.2 346L960 339L960 541L937.2 541C914.3 541 868.7 541 823 541C777.3 541 731.7 541 686 541C640.3 541 594.7 541 548.8 541C503 541 457 541 411.2 541C365.3 541 319.7 541 274 541C228.3 541 182.7 541 137 541C91.3 541 45.7 541 22.8 541L0 541Z" fill="#1958b9"></path><path d="M0 361L22.8 367.2C45.7 373.3 91.3 385.7 137 394.2C182.7 402.7 228.3 407.3 274 398.8C319.7 390.3 365.3 368.7 411.2 360.3C457 352 503 357 548.8 372.8C594.7 388.7 640.3 415.3 686 425.3C731.7 435.3 777.3 428.7 823 418C868.7 407.3 914.3 392.7 937.2 385.3L960 378L960 541L937.2 541C914.3 541 868.7 541 823 541C777.3 541 731.7 541 686 541C640.3 541 594.7 541 548.8 541C503 541 457 541 411.2 541C365.3 541 319.7 541 274 541C228.3 541 182.7 541 137 541C91.3 541 45.7 541 22.8 541L0 541Z" fill="#0d50b7"></path><path d="M0 425L22.8 429.2C45.7 433.3 91.3 441.7 137 442.3C182.7 443 228.3 436 274 432.8C319.7 429.7 365.3 430.3 411.2 429.2C457 428 503 425 548.8 428.5C594.7 432 640.3 442 686 454.2C731.7 466.3 777.3 480.7 823 483.7C868.7 486.7 914.3 478.3 937.2 474.2L960 470L960 541L937.2 541C914.3 541 868.7 541 823 541C777.3 541 731.7 541 686 541C640.3 541 594.7 541 548.8 541C503 541 457 541 411.2 541C365.3 541 319.7 541 274 541C228.3 541 182.7 541 137 541C91.3 541 45.7 541 22.8 541L0 541Z" fill="#0048b4"></path></svg>