<svg id="visual" viewBox="0 0 900 600" width="900" height="600" xmlns="http://www.w3.org/2000/svg" xmlns:xlink="http://www.w3.org/1999/xlink" version="1.1"><rect x="0" y="0" width="900" height="600" fill="#fff"></rect><defs><linearGradient id="grad1_0" x1="33.3%" y1="0%" x2="100%" y2="100%"><stop offset="20%" stop-color="#ffffff" stop-opacity="1"></stop><stop offset="80%" stop-color="#ffffff" stop-opacity="1"></stop></linearGradient></defs><defs><linearGradient id="grad2_0" x1="0%" y1="0%" x2="66.7%" y2="100%"><stop offset="20%" stop-color="#ffffff" stop-opacity="1"></stop><stop offset="80%" stop-color="#ffffff" stop-opacity="1"></stop></linearGradient></defs><g transform="translate(900, 0)"><path d="M0 378.6C-45.7 354.6 -91.3 330.6 -125.9 304C-160.5 277.4 -184 248.1 -224.2 224.2C-264.3 200.2 -321.2 181.4 -349.8 144.9C-378.3 108.4 -378.4 54.2 -378.6 0L0 0Z" fill="#F4F4F4"></path></g><g transform="translate(0, 600)"><path d="M0 -378.6C51.7 -375.1 103.5 -371.6 144.9 -349.8C186.3 -327.9 217.3 -287.6 251.7 -251.7C286.1 -215.8 323.8 -184.3 345.5 -143.1C367.2 -101.9 372.9 -51 378.6 0L0 0Z" fill="#F4F4F4"></path></g></svg>