<svg id="visual" viewBox="0 0 960 540" width="960" height="540" xmlns="http://www.w3.org/2000/svg" xmlns:xlink="http://www.w3.org/1999/xlink" version="1.1"><rect x="0" y="0" width="960" height="540" fill="#ededed"></rect><defs><linearGradient id="grad1_0" x1="43.8%" y1="100%" x2="100%" y2="0%"><stop offset="14.444444444444446%" stop-color="#cfcfcf" stop-opacity="1"></stop><stop offset="85.55555555555554%" stop-color="#cfcfcf" stop-opacity="1"></stop></linearGradient></defs><defs><linearGradient id="grad1_1" x1="43.8%" y1="100%" x2="100%" y2="0%"><stop offset="14.444444444444446%" stop-color="#cfcfcf" stop-opacity="1"></stop><stop offset="85.55555555555554%" stop-color="#ededed" stop-opacity="1"></stop></linearGradient></defs><defs><linearGradient id="grad2_0" x1="0%" y1="100%" x2="56.3%" y2="0%"><stop offset="14.444444444444446%" stop-color="#cfcfcf" stop-opacity="1"></stop><stop offset="85.55555555555554%" stop-color="#cfcfcf" stop-opacity="1"></stop></linearGradient></defs><defs><linearGradient id="grad2_1" x1="0%" y1="100%" x2="56.3%" y2="0%"><stop offset="14.444444444444446%" stop-color="#ededed" stop-opacity="1"></stop><stop offset="85.55555555555554%" stop-color="#cfcfcf" stop-opacity="1"></stop></linearGradient></defs><g transform="translate(960, 540)"><path d="M-405 0C-368.6 -40.3 -332.2 -80.6 -317.8 -131.6C-303.4 -182.7 -311 -244.5 -286.4 -286.4C-261.8 -328.3 -205 -350.3 -151.9 -366.8C-98.8 -383.2 -49.4 -394.1 0 -405L0 0Z" fill="#dedede"></path><path d="M-202.5 0C-184.3 -20.2 -166.1 -40.3 -158.9 -65.8C-151.7 -91.3 -155.5 -122.2 -143.2 -143.2C-130.9 -164.1 -102.5 -175.2 -76 -183.4C-49.4 -191.6 -24.7 -197.1 0 -202.5L0 0Z" fill="#cfcfcf"></path></g><g transform="translate(0, 0)"><path d="M405 0C357.8 34.1 310.6 68.1 299.3 124C288 179.9 312.6 257.6 286.4 286.4C260.2 315.2 183.2 295.1 127.1 306.7C70.9 318.3 35.4 361.7 0 405L0 0Z" fill="#dedede"></path><path d="M202.5 0C178.9 17 155.3 34.1 149.7 62C144 89.9 156.3 128.8 143.2 143.2C130.1 157.6 91.6 147.6 63.5 153.4C35.4 159.2 17.7 180.8 0 202.5L0 0Z" fill="#cfcfcf"></path></g></svg>