<svg id="visual" viewBox="0 0 960 540" width="960" height="540" xmlns="http://www.w3.org/2000/svg" xmlns:xlink="http://www.w3.org/1999/xlink" version="1.1"><g stroke-width="1" stroke-linejoin="bevel"><path d="M452.7 246L409.7 188L328 208Z" fill="#dbdbdb" stroke="#dbdbdb"></path><path d="M328 208L315 231L452.7 246Z" fill="#d5d5d5" stroke="#d5d5d5"></path><path d="M315 231L459.7 344L452.7 246Z" fill="#dedede" stroke="#dedede"></path><path d="M459.7 344L507.3 328L452.7 246Z" fill="#dbdbdb" stroke="#dbdbdb"></path><path d="M315 231L347 396L459.7 344Z" fill="#eaeaea" stroke="#eaeaea"></path><path d="M459.7 344L514.3 434L507.3 328Z" fill="#eaeaea" stroke="#eaeaea"></path><path d="M328 208L248.3 159L315 231Z" fill="#d5d5d5" stroke="#d5d5d5"></path><path d="M315 231L223.3 326L347 396Z" fill="#d2d2d2" stroke="#d2d2d2"></path><path d="M300 69L248.3 159L328 208Z" fill="#d5d5d5" stroke="#d5d5d5"></path><path d="M507.3 328L550.3 275L452.7 246Z" fill="#cfcfcf" stroke="#cfcfcf"></path><path d="M452.7 246L567.3 206L409.7 188Z" fill="#d8d8d8" stroke="#d8d8d8"></path><path d="M176.3 292L223.3 326L315 231Z" fill="#dedede" stroke="#dedede"></path><path d="M550.3 275L567.3 206L452.7 246Z" fill="#d5d5d5" stroke="#d5d5d5"></path><path d="M409.7 188L300 69L328 208Z" fill="#d5d5d5" stroke="#d5d5d5"></path><path d="M530.3 69L432.7 62L409.7 188Z" fill="#e1e1e1" stroke="#e1e1e1"></path><path d="M432.7 62L300 69L409.7 188Z" fill="#e4e4e4" stroke="#e4e4e4"></path><path d="M248.3 159L176.3 292L315 231Z" fill="#d8d8d8" stroke="#d8d8d8"></path><path d="M300 69L246.3 79L248.3 159Z" fill="#eaeaea" stroke="#eaeaea"></path><path d="M103.7 285L123.7 326L176.3 292Z" fill="#d5d5d5" stroke="#d5d5d5"></path><path d="M462.7 489L514.3 434L459.7 344Z" fill="#dbdbdb" stroke="#dbdbdb"></path><path d="M676 350L628 255L550.3 275Z" fill="#e7e7e7" stroke="#e7e7e7"></path><path d="M550.3 275L628 255L567.3 206Z" fill="#d2d2d2" stroke="#d2d2d2"></path><path d="M567.3 206L530.3 69L409.7 188Z" fill="#e1e1e1" stroke="#e1e1e1"></path><path d="M223.3 326L285 474L347 396Z" fill="#dedede" stroke="#dedede"></path><path d="M347 396L462.7 489L459.7 344Z" fill="#d5d5d5" stroke="#d5d5d5"></path><path d="M211.3 463L285 474L223.3 326Z" fill="#d5d5d5" stroke="#d5d5d5"></path><path d="M676 350L550.3 275L507.3 328Z" fill="#ededed" stroke="#ededed"></path><path d="M567.3 206L644 59L530.3 69Z" fill="#ededed" stroke="#ededed"></path><path d="M388.7 540L462.7 489L347 396Z" fill="#e7e7e7" stroke="#e7e7e7"></path><path d="M507.3 0L424.7 0L432.7 62Z" fill="#eaeaea" stroke="#eaeaea"></path><path d="M432.7 62L424.7 0L300 69Z" fill="#e4e4e4" stroke="#e4e4e4"></path><path d="M300 69L288 0L246.3 79Z" fill="#ededed" stroke="#ededed"></path><path d="M103.7 285L176.3 292L97.7 168Z" fill="#d8d8d8" stroke="#d8d8d8"></path><path d="M176.3 292L123.7 326L223.3 326Z" fill="#d2d2d2" stroke="#d2d2d2"></path><path d="M424.7 0L288 0L300 69Z" fill="#eaeaea" stroke="#eaeaea"></path><path d="M126.7 450L211.3 463L223.3 326Z" fill="#e4e4e4" stroke="#e4e4e4"></path><path d="M97.7 168L176.3 292L248.3 159Z" fill="#d5d5d5" stroke="#d5d5d5"></path><path d="M97.7 168L248.3 159L246.3 79Z" fill="#eaeaea" stroke="#eaeaea"></path><path d="M530.3 69L507.3 0L432.7 62Z" fill="#dedede" stroke="#dedede"></path><path d="M652 0L507.3 0L530.3 69Z" fill="#e1e1e1" stroke="#e1e1e1"></path><path d="M339 540L388.7 540L347 396Z" fill="#d2d2d2" stroke="#d2d2d2"></path><path d="M339 540L347 396L285 474Z" fill="#eaeaea" stroke="#eaeaea"></path><path d="M718.7 202L668 206L628 255Z" fill="#e4e4e4" stroke="#e4e4e4"></path><path d="M628 255L668 206L567.3 206Z" fill="#d2d2d2" stroke="#d2d2d2"></path><path d="M179.3 540L339 540L285 474Z" fill="#dbdbdb" stroke="#dbdbdb"></path><path d="M71.7 105L97.7 168L246.3 79Z" fill="#e4e4e4" stroke="#e4e4e4"></path><path d="M647 417L507.3 328L514.3 434Z" fill="#dedede" stroke="#dedede"></path><path d="M647 417L676 350L507.3 328Z" fill="#e7e7e7" stroke="#e7e7e7"></path><path d="M647 417L514.3 434L621 540Z" fill="#d8d8d8" stroke="#d8d8d8"></path><path d="M549.3 540L514.3 434L462.7 489Z" fill="#e1e1e1" stroke="#e1e1e1"></path><path d="M288 0L189.3 0L246.3 79Z" fill="#d2d2d2" stroke="#d2d2d2"></path><path d="M0 430L126.7 450L123.7 326Z" fill="#e1e1e1" stroke="#e1e1e1"></path><path d="M123.7 326L126.7 450L223.3 326Z" fill="#e7e7e7" stroke="#e7e7e7"></path><path d="M211.3 463L179.3 540L285 474Z" fill="#e7e7e7" stroke="#e7e7e7"></path><path d="M668 206L644 59L567.3 206Z" fill="#ededed" stroke="#ededed"></path><path d="M388.7 540L549.3 540L462.7 489Z" fill="#ededed" stroke="#ededed"></path><path d="M763.7 305L718.7 202L628 255Z" fill="#d8d8d8" stroke="#d8d8d8"></path><path d="M668 206L718.7 202L644 59Z" fill="#dedede" stroke="#dedede"></path><path d="M189.3 0L71.7 105L246.3 79Z" fill="#e1e1e1" stroke="#e1e1e1"></path><path d="M0 197L0 282L103.7 285Z" fill="#d2d2d2" stroke="#d2d2d2"></path><path d="M103.7 285L0 330L123.7 326Z" fill="#ededed" stroke="#ededed"></path><path d="M126.7 450L179.3 540L211.3 463Z" fill="#d5d5d5" stroke="#d5d5d5"></path><path d="M744.7 0L652 0L644 59Z" fill="#e1e1e1" stroke="#e1e1e1"></path><path d="M644 59L652 0L530.3 69Z" fill="#e4e4e4" stroke="#e4e4e4"></path><path d="M785.7 357L763.7 305L676 350Z" fill="#d2d2d2" stroke="#d2d2d2"></path><path d="M549.3 540L621 540L514.3 434Z" fill="#dbdbdb" stroke="#dbdbdb"></path><path d="M189.3 0L98.7 0L71.7 105Z" fill="#dbdbdb" stroke="#dbdbdb"></path><path d="M0 197L103.7 285L97.7 168Z" fill="#d5d5d5" stroke="#d5d5d5"></path><path d="M126.7 450L86.7 540L179.3 540Z" fill="#d2d2d2" stroke="#d2d2d2"></path><path d="M0 197L97.7 168L0 127Z" fill="#d5d5d5" stroke="#d5d5d5"></path><path d="M676 350L763.7 305L628 255Z" fill="#d8d8d8" stroke="#d8d8d8"></path><path d="M718.7 202L778.7 109L644 59Z" fill="#e1e1e1" stroke="#e1e1e1"></path><path d="M725.7 447L676 350L647 417Z" fill="#e4e4e4" stroke="#e4e4e4"></path><path d="M0 127L97.7 168L71.7 105Z" fill="#eaeaea" stroke="#eaeaea"></path><path d="M0 282L0 330L103.7 285Z" fill="#cfcfcf" stroke="#cfcfcf"></path><path d="M621 540L725.7 447L647 417Z" fill="#d2d2d2" stroke="#d2d2d2"></path><path d="M0 0L0 127L71.7 105Z" fill="#d8d8d8" stroke="#d8d8d8"></path><path d="M0 430L86.7 540L126.7 450Z" fill="#dbdbdb" stroke="#dbdbdb"></path><path d="M725.7 447L785.7 357L676 350Z" fill="#ededed" stroke="#ededed"></path><path d="M869.3 208L778.7 109L718.7 202Z" fill="#e7e7e7" stroke="#e7e7e7"></path><path d="M0 330L0 430L123.7 326Z" fill="#d5d5d5" stroke="#d5d5d5"></path><path d="M834.3 280L718.7 202L763.7 305Z" fill="#d2d2d2" stroke="#d2d2d2"></path><path d="M621 540L711.7 540L725.7 447Z" fill="#d5d5d5" stroke="#d5d5d5"></path><path d="M871.3 471L858.3 325L785.7 357Z" fill="#e1e1e1" stroke="#e1e1e1"></path><path d="M778.7 109L744.7 0L644 59Z" fill="#d2d2d2" stroke="#d2d2d2"></path><path d="M858.3 325L834.3 280L785.7 357Z" fill="#e4e4e4" stroke="#e4e4e4"></path><path d="M785.7 357L834.3 280L763.7 305Z" fill="#dedede" stroke="#dedede"></path><path d="M778.7 109L859.3 0L744.7 0Z" fill="#dbdbdb" stroke="#dbdbdb"></path><path d="M98.7 0L0 0L71.7 105Z" fill="#cfcfcf" stroke="#cfcfcf"></path><path d="M0 430L0 540L86.7 540Z" fill="#e4e4e4" stroke="#e4e4e4"></path><path d="M871.3 471L785.7 357L725.7 447Z" fill="#dedede" stroke="#dedede"></path><path d="M834.3 280L869.3 208L718.7 202Z" fill="#e7e7e7" stroke="#e7e7e7"></path><path d="M960 287L869.3 208L834.3 280Z" fill="#ededed" stroke="#ededed"></path><path d="M869.3 208L872.3 65L778.7 109Z" fill="#d2d2d2" stroke="#d2d2d2"></path><path d="M711.7 540L871.3 471L725.7 447Z" fill="#d2d2d2" stroke="#d2d2d2"></path><path d="M858.3 325L960 287L834.3 280Z" fill="#eaeaea" stroke="#eaeaea"></path><path d="M869.3 208L960 87L872.3 65Z" fill="#ededed" stroke="#ededed"></path><path d="M872.3 65L859.3 0L778.7 109Z" fill="#eaeaea" stroke="#eaeaea"></path><path d="M711.7 540L883.3 540L871.3 471Z" fill="#d2d2d2" stroke="#d2d2d2"></path><path d="M960 361L960 287L858.3 325Z" fill="#d2d2d2" stroke="#d2d2d2"></path><path d="M960 361L858.3 325L871.3 471Z" fill="#dedede" stroke="#dedede"></path><path d="M872.3 65L960 0L859.3 0Z" fill="#dedede" stroke="#dedede"></path><path d="M960 287L960 217L869.3 208Z" fill="#e1e1e1" stroke="#e1e1e1"></path><path d="M960 474L960 361L871.3 471Z" fill="#d5d5d5" stroke="#d5d5d5"></path><path d="M960 217L960 87L869.3 208Z" fill="#d8d8d8" stroke="#d8d8d8"></path><path d="M883.3 540L960 474L871.3 471Z" fill="#d2d2d2" stroke="#d2d2d2"></path><path d="M960 87L960 0L872.3 65Z" fill="#e4e4e4" stroke="#e4e4e4"></path><path d="M883.3 540L960 540L960 474Z" fill="#dbdbdb" stroke="#dbdbdb"></path></g></svg>