<svg id="visual" viewBox="0 0 900 600" width="900" height="600" xmlns="http://www.w3.org/2000/svg" xmlns:xlink="http://www.w3.org/1999/xlink" version="1.1"><rect x="0" y="0" width="900" height="600" fill="#ededed"></rect><g transform="translate(0.9618268406257471 600.0885977876808)"><path d="M121 -208.5C164.3 -184.5 212 -167.3 219.1 -133.6C226.2 -100 192.6 -50 179 -7.8C165.5 34.3 171.9 68.7 165.9 104.2C159.9 139.7 141.5 176.4 111.7 207.9C82 239.4 41 265.7 4.3 258.3C-32.5 251 -65 209.9 -100.7 181.8C-136.3 153.7 -175.1 138.6 -198.7 110.5C-222.3 82.3 -230.6 41.2 -211.2 11.2C-191.8 -18.8 -144.6 -37.5 -122 -67.2C-99.3 -97 -101.1 -137.7 -84.9 -177.3C-68.7 -216.9 -34.3 -255.5 2.2 -259.4C38.8 -263.3 77.7 -232.5 121 -208.5" fill="#CCCCCC"></path></g></svg>