<svg id="visual" viewBox="0 0 960 540" width="960" height="540" xmlns="http://www.w3.org/2000/svg" xmlns:xlink="http://www.w3.org/1999/xlink" version="1.1"><rect x="0" y="0" width="960" height="540" fill="#4c79bd"></rect><path d="M0 342L22.8 361.2C45.7 380.3 91.3 418.7 137 421.7C182.7 424.7 228.3 392.3 274 378.7C319.7 365 365.3 370 411.2 381.3C457 392.7 503 410.3 548.8 417.7C594.7 425 640.3 422 686 412.5C731.7 403 777.3 387 823 375.5C868.7 364 914.3 357 937.2 353.5L960 350L960 541L937.2 541C914.3 541 868.7 541 823 541C777.3 541 731.7 541 686 541C640.3 541 594.7 541 548.8 541C503 541 457 541 411.2 541C365.3 541 319.7 541 274 541C228.3 541 182.7 541 137 541C91.3 541 45.7 541 22.8 541L0 541Z" fill="#275fb3" stroke-linecap="round" stroke-linejoin="miter"></path></svg>