<svg id="visual" viewBox="0 0 900 450" width="900" height="450" xmlns="http://www.w3.org/2000/svg" xmlns:xlink="http://www.w3.org/1999/xlink" version="1.1"><rect x="0" y="0" width="900" height="450" fill="#4c79bd"></rect><path d="M0 259L21.5 261.7C43 264.3 86 269.7 128.8 287C171.7 304.3 214.3 333.7 257.2 333.5C300 333.3 343 303.7 385.8 295.5C428.7 287.3 471.3 300.7 514.2 317.2C557 333.7 600 353.3 642.8 358.5C685.7 363.7 728.3 354.3 771.2 333.3C814 312.3 857 279.7 878.5 263.3L900 247L900 451L878.5 451C857 451 814 451 771.2 451C728.3 451 685.7 451 642.8 451C600 451 557 451 514.2 451C471.3 451 428.7 451 385.8 451C343 451 300 451 257.2 451C214.3 451 171.7 451 128.8 451C86 451 43 451 21.5 451L0 451Z" fill="#386dbe" stroke-linecap="round" stroke-linejoin="miter"></path></svg>