<svg id="visual" viewBox="0 0 960 540" width="960" height="540" xmlns="http://www.w3.org/2000/svg" xmlns:xlink="http://www.w3.org/1999/xlink" version="1.1"><rect x="0" y="0" width="960" height="540" fill="#4c79bd"></rect><path d="M0 349L22.8 351.7C45.7 354.3 91.3 359.7 137 377C182.7 394.3 228.3 423.7 274 423.5C319.7 423.3 365.3 393.7 411.2 385.5C457 377.3 503 390.7 548.8 407.2C594.7 423.7 640.3 443.3 686 448.5C731.7 453.7 777.3 444.3 823 423.3C868.7 402.3 914.3 369.7 937.2 353.3L960 337L960 541L937.2 541C914.3 541 868.7 541 823 541C777.3 541 731.7 541 686 541C640.3 541 594.7 541 548.8 541C503 541 457 541 411.2 541C365.3 541 319.7 541 274 541C228.3 541 182.7 541 137 541C91.3 541 45.7 541 22.8 541L0 541Z" fill="#386dbe" stroke-linecap="round" stroke-linejoin="miter"></path></svg>