<svg version="1.1" id="Layer_1" xmlns="http://www.w3.org/2000/svg" xmlns:xlink="http://www.w3.org/1999/xlink" x="0px" y="0px"
	 width="100%" viewBox="0 0 1024 1024" enable-background="new 0 0 1024 1024" xml:space="preserve">
<path fill="#000000" opacity="1.000000" stroke="none"
	d="
M79.626190,558.999878
	C79.623993,501.511719 80.019455,444.519348 79.421379,387.537445
	C79.186363,365.147003 93.499916,348.806488 118.458504,348.856049
	C172.113800,348.962585 225.769440,348.900360 279.424927,348.909302
	C310.918365,348.914551 342.411926,348.878021 373.905029,348.984985
	C378.204987,348.999603 382.616333,349.253448 386.781067,350.229126
	C402.997772,354.028168 413.302673,367.602478 413.326202,385.038940
	C413.386871,430.029541 413.347870,475.020294 413.348297,520.010986
	C413.348633,554.337219 413.356201,588.663452 413.345612,622.989685
	C413.338867,644.872253 398.933838,659.347290 377.068695,659.351379
	C290.086700,659.367798 203.104691,659.363647 116.122681,659.341309
	C94.514435,659.335754 79.674484,644.508423 79.651474,622.986145
	C79.628853,601.824097 79.633522,580.661987 79.626190,558.999878
M291.500000,637.734070
	C319.828125,637.763123 348.156281,637.838501 376.484314,637.796082
	C386.311401,637.781372 391.644928,632.439331 391.650665,622.644226
	C391.687805,559.155273 391.620941,495.666290 391.760010,432.177673
	C391.770447,427.414490 390.096130,426.313599 385.658813,426.318512
	C292.841797,426.421265 200.024612,426.433899 107.207680,426.298492
	C102.255760,426.291260 101.074471,427.949554 101.084602,432.609955
	C101.221420,495.598633 101.173576,558.587708 101.221664,621.576660
	C101.230034,632.542969 106.500519,637.649292 117.530151,637.655334
	C175.186768,637.686829 232.843384,637.707397 291.500000,637.734070
M128.501221,371.210510
	C123.834770,371.220490 119.165825,371.136719 114.502434,371.261230
	C106.442734,371.476410 101.597031,376.297577 101.283752,384.453522
	C101.111137,388.947205 101.162422,393.451324 101.187271,397.950317
	C101.229645,405.622528 101.254288,405.631714 108.805283,405.631653
	C200.802536,405.630707 292.799805,405.626831 384.797058,405.623230
	C385.796997,405.623199 386.799561,405.568268 387.796417,405.621826
	C390.580597,405.771271 391.692932,404.408417 391.665314,401.706268
	C391.604034,395.707245 391.801544,389.701569 391.588593,383.709412
	C391.424072,379.079926 389.015198,375.597412 385.130859,373.048981
	C381.341919,370.563232 377.097137,371.148376 372.992279,371.147736
	C291.828430,371.134552 210.664597,371.178101 128.501221,371.210510
z"/>
<path fill="#000000" opacity="1.000000" stroke="none"
	d="
M548.120483,445.949036
	C567.262024,497.225891 586.267883,548.126831 605.413696,599.402527
	C600.289429,601.218323 595.480957,600.273621 590.801758,600.329041
	C577.476807,600.486816 577.471436,600.390503 572.833984,587.798096
	C570.420410,581.244446 567.887512,574.729980 565.674866,568.108826
	C564.446350,564.432617 562.480286,562.859192 558.419006,562.905884
	C540.934631,563.107056 523.445679,563.109863 505.960938,562.932678
	C501.941956,562.892029 499.994141,564.379150 498.701324,568.087646
	C495.471985,577.351013 491.749908,586.442566 488.516785,595.704773
	C487.355347,599.032104 485.727325,600.554443 482.070923,600.444885
	C474.609894,600.221130 467.137451,600.377930 458.929199,600.377930
	C459.946228,594.505493 462.292328,589.744812 464.108826,584.894958
	C481.200989,539.260437 498.499969,493.703217 515.512146,448.039093
	C517.324280,443.174805 519.742798,441.134949 524.957764,441.529205
	C530.588196,441.954834 536.278503,441.748291 541.936279,441.588440
	C545.040344,441.500702 547.059753,442.585602 548.120483,445.949036
M551.739136,538.688293
	C555.188782,538.648193 554.398132,536.528625 553.682739,534.579712
	C551.735962,529.276062 549.724487,523.996094 547.733337,518.708740
	C542.614990,505.116821 537.493652,491.526001 531.895386,476.665741
	C524.080261,497.872162 516.758057,517.741150 509.422852,537.645264
	C510.573944,538.159912 511.009094,538.522888 511.446472,538.525574
	C524.595703,538.606018 537.745239,538.650879 551.739136,538.688293
z"/>
<path fill="#000000" opacity="1.000000" stroke="none"
	d="
M808.439209,559.147095
	C801.374390,586.123047 778.731995,603.922791 751.918396,603.935913
	C723.343567,603.949890 699.977600,585.517029 693.183350,557.601135
	C685.946228,527.865906 699.643127,497.929871 727.164673,486.409332
	C766.087830,470.116058 809.547974,493.984344 810.337891,539.980164
	C810.446350,546.294373 810.693176,552.638306 808.439209,559.147095
M749.734863,579.620483
	C767.313965,579.632019 779.483276,570.194641 783.700867,553.174683
	C785.577209,545.602722 785.388611,537.952698 783.500854,530.451721
	C777.823669,507.893494 752.618469,497.845337 733.212036,510.498230
	C724.013916,516.495300 719.724548,525.561890 717.921631,536.280396
	C715.096558,553.075439 724.273315,577.460266 749.734863,579.620483
z"/>
<path fill="#000000" opacity="1.000000" stroke="none"
	d="
M828.651733,574.999878
	C828.645630,546.674194 828.760132,518.847473 828.523071,491.023804
	C828.480103,485.985291 829.872314,484.206146 834.967468,484.558075
	C840.887207,484.967072 846.856873,484.653473 852.673584,484.653473
	C854.170959,488.848755 852.354370,492.883820 854.351746,496.483704
	C870.895447,477.421143 895.386719,479.341370 909.677673,486.485046
	C922.748291,493.018616 929.747986,504.273590 931.130981,518.179810
	C933.721802,544.231201 931.779114,570.435547 932.226440,596.570374
	C932.274292,599.366028 931.022095,600.421936 928.312622,600.382751
	C922.815430,600.303223 917.301941,600.129150 911.822083,600.451111
	C907.257568,600.719238 905.730652,599.106812 905.776978,594.497192
	C905.969238,575.337891 905.871521,556.175171 905.800293,537.014038
	C905.784241,532.695984 906.007263,528.264221 905.149902,524.083862
	C902.830627,512.775696 894.298340,505.865479 882.907043,505.395721
	C869.131897,504.827667 860.125977,510.350403 856.253601,521.773071
	C854.965332,525.573181 854.280029,529.443176 854.295166,533.508179
	C854.370605,553.835632 854.191711,574.164673 854.389648,594.490356
	C854.433899,599.035217 853.121948,600.776978 848.473816,600.460815
	C843.331848,600.111145 838.146057,600.265076 832.984497,600.398315
	C829.779297,600.481079 828.544250,599.221680 828.615417,595.993530
	C828.765991,589.165405 828.655396,582.331482 828.651733,574.999878
z"/>
<path fill="#000000" opacity="1.000000" stroke="none"
	d="
M646.491943,531.729492
	C646.318115,552.143860 646.214905,572.124084 646.104126,592.104248
	C646.058289,600.375732 646.050964,600.376892 638.022522,600.380127
	C634.026001,600.381775 630.016663,600.177551 626.036560,600.432617
	C621.950562,600.694458 620.511841,599.207397 620.575012,595.034851
	C620.783936,581.216736 620.651794,567.393494 620.651855,553.572205
	C620.651978,532.590515 620.755798,511.607880 620.570801,490.627838
	C620.531982,486.223114 621.600830,484.190369 626.377197,484.577484
	C630.843933,484.939514 635.374207,484.851044 639.855774,484.596283
	C643.829529,484.370361 645.843445,485.562531 645.390625,489.869324
	C645.224487,491.448914 644.954224,493.223755 646.297302,494.683105
	C648.340149,495.153717 649.189148,493.381622 650.261963,492.309326
	C659.488708,483.087524 671.006042,481.881470 683.133789,482.792542
	C685.995178,483.007507 687.091125,484.787323 687.067749,487.546570
	C687.018311,493.374237 686.978149,499.204254 687.092102,505.030182
	C687.163208,508.663239 685.654053,509.836517 682.169373,508.952759
	C677.417053,507.747620 672.526917,507.963104 667.759766,508.487671
	C657.912109,509.571289 652.080627,515.823853 648.596008,524.616638
	C647.741333,526.773132 647.229187,529.065369 646.491943,531.729492
z"/>
<path fill="#000000" opacity="1.000000" stroke="none"
	d="
M521.399231,428.622192
	C525.994812,419.882233 530.558472,411.555298 534.879944,403.104492
	C536.450928,400.032410 538.558594,398.747162 541.986755,398.816193
	C549.558044,398.968597 557.134644,398.863617 564.119873,398.863617
	C565.281921,400.921234 564.721863,401.803955 564.154785,402.609161
	C558.114258,411.186493 552.142517,419.814636 545.952637,428.283203
	C543.058899,432.242157 524.392273,432.601379 521.399231,428.622192
z"/>
<path fill="#000000" opacity="1.000000" stroke="none"
	d="
M252.960617,481.131561
	C256.011230,472.452271 259.038086,464.175903 261.767059,455.802460
	C262.962799,452.133453 264.793121,450.350830 268.914001,450.562073
	C275.151367,450.881775 281.417206,450.645569 288.711304,450.645569
	C286.230591,458.004913 284.193024,464.249756 282.024994,470.449005
	C266.827179,513.905334 251.532791,557.328186 236.483994,600.835999
	C234.811218,605.672119 232.618774,608.057556 227.264114,607.459717
	C223.153397,607.000854 218.946091,607.236694 214.790680,607.396301
	C210.623444,607.556335 209.554016,606.296265 211.027756,602.101868
	C222.872940,568.389648 234.545288,534.616760 246.251053,500.855621
	C248.483337,494.417358 250.629791,487.949310 252.960617,481.131561
z"/>
<path fill="#000000" opacity="1.000000" stroke="none"
	d="
M161.495941,539.475342
	C172.351471,547.226929 182.840286,554.877258 193.520004,562.250977
	C196.940430,564.612610 198.307358,567.437988 198.134674,571.469604
	C197.935364,576.122742 198.112411,580.790894 198.055634,585.451721
	C198.033768,587.247314 198.272797,589.166687 196.578094,590.638428
	C194.162155,591.060181 192.693558,589.128540 191.026489,587.967590
	C170.001480,573.326111 149.075974,558.541321 128.013443,543.954346
	C124.773529,541.710510 123.967728,539.094788 123.468376,535.307678
	C122.094414,524.887329 125.822250,518.460510 134.860596,512.633423
	C154.417053,500.025360 173.042786,485.974243 192.066620,472.538055
	C193.491470,471.531677 194.887741,469.691742 196.871384,470.909821
	C198.482925,471.899445 198.044373,473.881897 198.092590,475.514313
	C198.698334,496.027069 198.685120,496.013336 181.996658,507.595795
	C172.973663,513.858093 163.971771,520.151306 155.004608,526.493225
	C153.278976,527.713684 151.283661,528.703796 150.014069,531.148071
	C153.734161,533.847351 157.468689,536.557068 161.495941,539.475342
z"/>
<path fill="#000000" opacity="1.000000" stroke="none"
	d="
M303.946350,473.971741
	C324.753174,488.715668 345.249237,503.275269 365.802185,517.754089
	C368.352936,519.550964 369.038513,521.749451 369.539124,524.789124
	C371.531403,536.886292 367.109833,544.476624 356.480743,551.084167
	C337.558289,562.847168 319.744507,576.392395 301.436554,589.148376
	C300.157654,590.039429 298.863434,591.676575 297.026581,590.579834
	C295.308807,589.554077 295.778320,587.637451 295.759308,586.018433
	C295.710358,581.854248 296.134857,577.641052 295.638702,573.535767
	C294.894318,567.376587 297.629242,563.736206 302.512665,560.425171
	C315.186707,551.831970 327.575043,542.817017 340.060303,533.946350
	C341.255463,533.097229 342.681366,532.435608 343.250305,530.795471
	C342.958069,528.698792 340.975250,528.105896 339.572815,527.107849
	C326.687225,517.936951 313.807434,508.754944 300.782349,499.784698
	C297.120880,497.263123 295.321381,494.403137 295.661743,489.842987
	C296.020355,485.038940 295.689453,480.186249 295.759369,475.356262
	C295.782471,473.761963 295.092590,471.767761 296.779724,470.729980
	C298.801575,469.486298 300.091125,471.463776 301.576874,472.373657
	C302.286316,472.808197 302.961975,473.297974 303.946350,473.971741
z"/>
<path fill="#000000" opacity="1.000000" stroke="none"
	d="
M377.388214,376.879822
	C383.487244,379.914520 386.083160,384.622162 384.841919,389.751160
	C383.493713,395.322205 379.211609,398.935608 373.913208,398.973297
	C368.817413,399.009521 364.281433,395.809967 363.042633,391.030121
	C361.199554,383.918976 364.891022,374.851410 377.388214,376.879822
z"/>
<path fill="#000000" opacity="1.000000" stroke="none"
	d="
M293.301117,394.500183
	C287.423187,385.865082 293.881897,376.181305 301.802673,376.437164
	C307.247437,376.613037 310.896484,378.725464 312.680603,383.469604
	C314.466034,388.217255 313.027039,393.628235 309.214661,396.502686
	C305.264465,399.480988 299.875427,399.637909 295.728088,396.823486
	C294.916107,396.272461 294.267639,395.480560 293.301117,394.500183
z"/>
<path fill="#000000" opacity="1.000000" stroke="none"
	d="
M337.982483,376.637878
	C345.143280,377.302704 349.444977,381.813904 349.204346,387.956909
	C348.964020,394.091766 343.828949,399.098785 337.854462,399.023834
	C332.178650,398.952667 327.019012,393.972809 326.689514,388.248016
	C326.314667,381.735229 330.524231,377.235870 337.982483,376.637878
z"/>
</svg>
