<svg version="1.1" id="Layer_1" xmlns="http://www.w3.org/2000/svg" xmlns:xlink="http://www.w3.org/1999/xlink" x="0px" y="0px"
	 width="100%" viewBox="0 0 1024 1024" enable-background="new 0 0 1024 1024" xml:space="preserve">
<path fill="#000000" opacity="1.000000" stroke="none" 
	d="
M275.018646,388.667786 
	C278.176788,388.665100 280.842651,388.632477 283.507599,388.667145 
	C288.887146,388.737122 290.086578,389.991821 289.197235,395.294647 
	C286.482971,411.478424 283.596619,427.633270 280.855194,443.812592 
	C276.641327,468.682434 272.806274,493.621246 268.229553,518.423584 
	C263.442200,544.367126 260.745514,570.661438 254.906052,596.416992 
	C254.409302,598.607971 254.120819,600.786865 251.946198,602.471619 
	C248.994766,604.758118 250.124619,608.416016 250.689240,611.341614 
	C251.277069,614.387451 254.384521,613.544128 256.590515,613.545898 
	C282.244690,613.565979 307.899170,613.580933 333.552643,613.432129 
	C336.458893,613.415283 337.258698,614.310181 337.393738,617.063538 
	C337.873260,626.840149 337.960083,626.892578 328.353027,626.898987 
	C279.875336,626.931213 231.397507,626.993408 182.920013,626.900574 
	C170.313263,626.876465 172.958145,627.516724 172.696106,616.400513 
	C172.680740,615.748962 172.863861,615.092712 172.942764,614.523926 
	C174.265930,613.214600 175.840607,613.623413 177.289688,613.617188 
	C197.772934,613.529297 218.256409,613.418030 238.739471,613.467651 
	C241.582382,613.474548 242.989822,612.533875 242.581284,609.792358 
	C242.177094,607.079956 244.543472,602.849976 239.279526,602.434082 
	C235.466751,602.132812 231.621979,602.234985 227.791382,602.161560 
	C221.911865,602.048828 220.923233,601.098083 221.788147,595.354980 
	C223.417664,584.534729 225.233948,573.742188 227.018661,562.945740 
	C231.211090,537.584045 235.640915,512.259460 239.569778,486.857178 
	C242.486420,467.999481 246.111176,449.297760 249.951660,430.614319 
	C252.352112,418.936554 253.908646,407.078156 255.613434,395.267548 
	C256.494629,389.162628 257.760559,388.020874 264.038910,388.494110 
	C267.519196,388.756439 271.029297,388.623260 275.018646,388.667786 
z"/>
<path fill="#000000" opacity="1.000000" stroke="none" 
	d="
M339.380890,474.607422 
	C327.440704,462.731567 315.712189,451.129456 304.059906,439.451355 
	C298.008698,433.386688 298.066010,431.486755 304.118164,425.491180 
	C307.075958,422.561005 310.005066,419.593262 313.099640,416.812225 
	C316.287567,413.947296 319.691284,413.750183 322.890594,416.858978 
	C327.906952,421.733368 332.891083,426.642212 337.823792,431.601196 
	C353.689514,447.551453 369.529938,463.526917 385.366241,479.506409 
	C387.007690,481.162689 388.605286,482.868225 390.138824,484.624603 
	C394.707214,489.856873 394.805573,493.773224 390.399506,499.265472 
	C388.735291,501.339905 386.893768,503.285950 385.013245,505.170959 
	C364.180603,526.053040 343.328217,546.915405 322.471527,567.773438 
	C318.058258,572.186951 316.745941,572.158142 312.224548,567.718384 
	C308.896545,564.450439 305.604584,561.143921 302.214111,557.941833 
	C297.638733,553.620728 297.492493,551.301392 302.058777,546.713684 
	C318.280579,530.415955 334.560638,514.176208 350.814392,497.910217 
	C356.812469,491.907654 356.792236,491.917511 350.582367,485.806702 
	C346.900696,482.183746 343.275024,478.503906 339.380890,474.607422 
z"/>
<path fill="#000000" opacity="1.000000" stroke="none" 
	d="
M185.529938,414.137848 
	C187.492676,413.491272 188.896698,413.981964 190.015244,415.091400 
	C194.388641,419.429077 198.804550,423.730469 203.019592,428.219116 
	C206.287842,431.699463 204.843094,434.660187 201.801895,437.651306 
	C186.245804,452.951477 170.800583,468.364380 155.317078,483.738342 
	C154.726074,484.325165 154.137573,484.914551 153.552185,485.506927 
	C147.653152,491.476044 147.660446,491.469208 153.727356,497.515503 
	C169.416321,513.151062 185.100540,528.791443 200.782257,544.434326 
	C206.443878,550.081909 206.467865,551.733459 200.848663,557.609863 
	C197.740967,560.859802 194.608765,564.090759 191.380692,567.219971 
	C188.373962,570.134705 185.296555,570.221252 182.200531,567.171631 
	C159.418259,544.730469 136.742386,522.182434 114.740196,498.972473 
	C109.483307,493.427002 109.514366,489.230377 114.534813,484.195862 
	C136.876633,461.791412 159.284561,439.452881 181.690918,417.112976 
	C182.742676,416.064301 184.008682,415.230530 185.529938,414.137848 
z"/>
<path fill="#000000" opacity="1.000000" stroke="none" 
	d="
M710.877380,452.000000 
	C710.867920,436.336853 710.974060,421.172150 710.773560,406.011536 
	C710.719177,401.897064 712.031006,400.096344 716.184265,400.636108 
	C717.003418,400.742615 717.848511,400.649170 718.681641,400.648438 
	C728.472717,400.640015 728.472717,400.639984 729.553589,410.360504 
	C732.459167,407.970276 734.985413,405.384247 737.964966,403.524567 
	C755.657471,392.481567 779.332886,398.297089 790.826416,416.355560 
	C801.020264,432.371979 800.223755,457.136292 789.365601,472.654846 
	C776.567444,490.946106 747.409302,495.080322 730.253357,477.461304 
	C730.253357,487.818848 730.252563,497.711365 730.253906,507.603851 
	C730.254333,510.769775 730.138794,513.941772 730.297546,517.099915 
	C730.462769,520.384216 729.011169,521.475891 725.841736,521.404785 
	C707.555664,520.994385 711.257507,524.060486 710.998535,507.486511 
	C710.712280,489.161499 710.897705,470.829163 710.877380,452.000000 
M757.094849,415.371124 
	C754.288879,415.497375 751.494873,415.163971 748.686584,415.975159 
	C727.062073,422.221344 724.786560,449.058990 734.937988,462.260101 
	C741.201660,470.405457 750.700195,473.709961 760.147339,470.882324 
	C772.076294,467.311859 780.051086,455.568054 779.639893,442.177612 
	C779.219788,428.498016 770.858887,418.175079 757.094849,415.371124 
z"/>
<path fill="#000000" opacity="1.000000" stroke="none" 
	d="
M426.250977,618.395447 
	C436.932709,590.529907 447.500122,563.033630 457.907166,535.476746 
	C459.221191,531.997253 461.032288,530.659851 464.839752,530.669617 
	C479.387817,530.706726 479.492981,530.531128 484.716614,544.064392 
	C497.480072,577.131714 510.147644,610.236084 522.805359,643.343994 
	C523.436462,644.994629 524.522339,646.621277 523.842651,649.262878 
	C517.746826,649.262878 511.488892,649.332581 505.234100,649.223694 
	C503.142700,649.187317 502.791595,647.221375 502.241608,645.677124 
	C499.729584,638.623840 497.141541,631.594727 494.803101,624.483826 
	C493.821320,621.498413 492.243378,620.265808 489.017548,620.304016 
	C476.353638,620.454163 463.686005,620.457886 451.021942,620.319031 
	C447.639435,620.281921 445.854675,621.527893 444.820007,624.726379 
	C442.619019,631.530212 440.046844,638.213684 437.827484,645.012085 
	C436.809601,648.129944 435.215973,649.632202 431.721741,649.462036 
	C426.284546,649.197144 420.824982,649.391968 414.406128,649.391968 
	C418.544434,638.535095 422.315918,628.640564 426.250977,618.395447 
M457.481262,589.814697 
	C456.466644,593.918457 453.823395,597.563110 453.750183,602.484253 
	C464.681427,602.643188 475.316345,602.970520 486.674835,602.259338 
	C481.073212,586.984070 475.769867,572.522034 470.466492,558.059998 
	C469.986115,558.133301 469.505768,558.206665 469.025391,558.279968 
	C465.277222,568.549866 461.529022,578.819824 457.481262,589.814697 
z"/>
<path fill="#000000" opacity="1.000000" stroke="none" 
	d="
M609.649109,441.999878 
	C609.649841,429.499939 609.755859,417.498566 609.588745,405.500977 
	C609.537598,401.827637 610.771790,400.226288 614.473022,400.634552 
	C615.625488,400.761658 616.804138,400.648529 617.970825,400.648132 
	C626.519226,400.645111 626.519226,400.645325 627.858887,408.853851 
	C629.253906,409.654175 630.021179,408.533264 630.801941,407.771515 
	C651.466187,387.611847 688.956238,399.014893 695.145996,430.889771 
	C698.422363,447.761505 696.618958,463.905426 683.959656,476.972656 
	C668.423218,493.009644 644.496399,492.989624 628.275085,476.906464 
	C628.275085,489.792023 628.076721,502.343140 628.374817,514.882446 
	C628.490662,519.755859 627.293884,521.619141 622.036255,521.491455 
	C609.658081,521.190857 609.651062,521.457336 609.650635,508.999664 
	C609.649841,486.833069 609.649780,464.666504 609.649109,441.999878 
M664.378296,418.033630 
	C658.992554,415.204926 653.303772,414.453796 647.456482,416.039093 
	C635.383911,419.312256 629.206482,427.941071 627.657959,439.753326 
	C626.144287,451.300476 629.840393,461.317657 639.761169,468.013275 
	C647.230042,473.054199 655.361633,473.129669 663.455688,468.989349 
	C682.484192,459.255585 682.476379,428.032288 664.378296,418.033630 
z"/>
<path fill="#000000" opacity="1.000000" stroke="none" 
	d="
M470.692200,443.210510 
	C463.233246,443.242615 456.236572,443.439514 449.254547,443.203613 
	C445.247589,443.068268 444.067444,444.646057 444.126984,448.462646 
	C444.298279,459.445099 444.087280,470.433319 444.236053,481.416412 
	C444.284546,484.995239 443.164764,486.347443 439.404297,486.418274 
	C424.648346,486.696289 424.651520,486.814697 424.652130,471.925507 
	C424.653473,438.969910 424.748688,406.013702 424.551880,373.059296 
	C424.522461,368.133240 425.730743,366.391113 430.915192,366.528625 
	C444.387604,366.886017 457.876892,366.539185 471.357208,366.684540 
	C488.713470,366.871735 504.865356,378.910736 508.450836,395.304443 
	C513.670227,419.168671 499.579071,438.620239 477.076080,442.339905 
	C475.110901,442.664764 473.132751,442.911072 470.692200,443.210510 
M484.148254,391.362549 
	C480.660828,388.045624 476.480896,385.772125 471.759674,385.501709 
	C463.964630,385.055206 456.131805,385.298737 448.316681,385.155487 
	C445.362610,385.101349 444.142273,386.320190 444.169220,389.306671 
	C444.262177,399.618835 444.264557,409.932617 444.194122,420.245026 
	C444.172638,423.391968 445.413788,424.779175 448.631561,424.725830 
	C455.948639,424.604553 463.297638,425.059753 470.579742,424.533844 
	C478.976227,423.927490 485.508545,419.776764 488.556641,411.631348 
	C491.257416,404.414154 490.411377,397.573364 484.148254,391.362549 
z"/>
<path fill="#000000" opacity="1.000000" stroke="none" 
	d="
M515.062134,469.399109 
	C513.075256,448.708099 521.840210,438.103943 541.944214,435.518738 
	C550.596436,434.406097 559.218018,434.741425 567.853088,434.717926 
	C571.616943,434.707672 572.783813,433.290985 572.717590,429.686584 
	C572.633057,425.088745 571.300354,421.261047 567.786682,418.190308 
	C559.944580,411.336853 541.210876,412.939972 537.284668,425.070435 
	C536.504639,427.480255 535.047668,428.521271 532.484070,428.392639 
	C529.495300,428.242645 526.476318,428.157318 523.500610,428.405304 
	C518.805420,428.796570 518.216309,426.238892 518.849426,422.545319 
	C520.129883,415.075104 524.131348,409.322052 530.205322,405.008636 
	C542.838928,396.036926 566.791260,396.181519 579.453064,405.092133 
	C587.281921,410.601562 591.123901,418.306152 591.264709,427.599121 
	C591.534485,445.406738 591.238586,463.222473 591.422729,481.032257 
	C591.465759,485.189880 590.072571,486.890289 585.979797,486.370209 
	C585.324524,486.286926 584.649536,486.358917 583.983643,486.359467 
	C574.757446,486.366943 574.757446,486.366974 572.951477,478.155670 
	C570.785767,478.310699 569.545288,480.057861 567.998108,481.167816 
	C557.079041,489.001221 545.090881,490.625824 532.432434,486.921204 
	C523.764587,484.384430 517.654114,478.809448 515.062134,469.399109 
M569.228394,463.646606 
	C572.049133,460.468628 572.967712,456.723175 572.654541,452.557953 
	C572.531555,450.921783 572.221619,449.366516 570.290161,449.392639 
	C560.545471,449.524384 550.643555,447.831543 541.155151,451.261780 
	C536.665466,452.884857 533.508423,455.987915 533.391357,461.173706 
	C533.288391,465.733704 536.281128,469.720886 541.511292,471.318390 
	C551.973083,474.513794 561.154114,472.253662 569.228394,463.646606 
z"/>
<path fill="#000000" opacity="1.000000" stroke="none" 
	d="
M602.176697,570.112427 
	C629.161011,549.335999 665.851624,563.660522 671.437927,596.817993 
	C675.313660,619.822388 665.732239,639.644531 646.769348,647.852600 
	C617.955078,660.324707 586.962646,639.902344 586.527283,608.602539 
	C586.316589,593.448364 589.786499,580.291565 602.176697,570.112427 
M647.244873,625.726318 
	C654.052979,618.514709 654.492676,609.670288 653.696045,600.515503 
	C652.768127,589.852112 643.896790,580.033264 633.739624,578.407471 
	C621.459167,576.441833 611.924072,581.530029 607.050354,592.688232 
	C604.957275,597.480469 604.005737,602.488098 604.347412,607.730652 
	C605.043579,618.413513 609.040100,627.364258 619.297668,631.725159 
	C629.362427,636.004028 638.828003,634.242249 647.244873,625.726318 
z"/>
<path fill="#000000" opacity="1.000000" stroke="none" 
	d="
M703.348938,608.025818 
	C703.346497,620.511108 703.246338,632.502380 703.400208,644.490417 
	C703.446716,648.109863 702.277100,649.398865 698.550903,649.465149 
	C684.656738,649.712158 684.656311,649.832458 684.655457,636.080872 
	C684.654114,613.766113 684.648254,591.451294 684.662598,569.136536 
	C684.666809,562.654419 684.695312,562.647644 691.340210,562.617432 
	C694.799072,562.601685 698.258057,562.614685 702.266113,562.614685 
	C702.266113,566.236877 702.266113,569.308350 702.266113,573.445740 
	C710.044067,564.823181 718.564148,560.478638 729.303772,560.585205 
	C747.991699,560.770691 760.704041,572.303345 761.220520,590.969299 
	C761.717834,608.940674 761.293823,626.936523 761.377441,644.921143 
	C761.391846,648.015564 760.469543,649.481262 757.117371,649.407776 
	C739.532898,649.022034 743.128540,651.919434 742.849182,635.979492 
	C742.621582,622.994568 742.863220,610.001953 742.833679,597.012878 
	C742.808899,586.087219 738.472046,579.666565 729.904114,577.675293 
	C720.271545,575.436707 710.615234,580.113220 706.095764,588.990479 
	C703.084656,594.905029 703.245911,601.201294 703.348938,608.025818 
z"/>
<path fill="#000000" opacity="1.000000" stroke="none" 
	d="
M558.715210,585.755127 
	C554.934814,590.893616 553.281860,596.303894 553.321106,602.350830 
	C553.411865,616.330078 553.237610,630.311829 553.415955,644.289368 
	C553.465881,648.199097 552.182129,649.441528 548.257874,649.468933 
	C534.647034,649.564026 534.650452,649.700745 534.651917,636.321655 
	C534.654358,613.854004 534.814758,591.384338 534.532715,568.920227 
	C534.467590,563.734985 536.176575,561.940247 541.068726,562.586914 
	C542.049927,562.716614 543.063354,562.600586 544.061951,562.599976 
	C552.463806,562.595093 552.463806,562.595276 554.128296,571.033752 
	C556.083557,569.371765 557.776855,567.968628 559.430481,566.520264 
	C565.043274,561.604187 571.644775,560.052673 578.920837,560.704895 
	C581.374451,560.924866 583.093933,561.878662 583.105957,564.630371 
	C583.127625,569.592041 583.112122,574.553772 583.112122,580.408325 
	C573.629517,577.309570 565.507446,578.317932 558.715210,585.755127 
z"/>
<path fill="#000000" opacity="1.000000" stroke="none" 
	d="
M470.545288,504.538269 
	C472.661499,499.599457 476.067657,498.020721 481.011200,498.576630 
	C485.726166,499.106781 490.548248,498.199097 495.661163,499.146484 
	C494.449738,503.206207 491.439880,505.699677 489.300995,508.730469 
	C487.291443,511.578003 485.148224,514.333374 483.009766,517.087341 
	C477.231110,524.529297 469.891815,526.498779 459.619843,523.060669 
	C462.231903,516.377136 466.841492,510.918884 470.545288,504.538269 
z"/>
</svg>