<svg id="visual" viewBox="0 0 960 540" width="960" height="540" xmlns="http://www.w3.org/2000/svg" xmlns:xlink="http://www.w3.org/1999/xlink" version="1.1"><rect x="0" y="0" width="960" height="540" fill="#ededed"></rect><path d="M0 323L26.7 310.2C53.3 297.3 106.7 271.7 160 280.8C213.3 290 266.7 334 320 350.7C373.3 367.3 426.7 356.7 480 323.8C533.3 291 586.7 236 640 233.3C693.3 230.7 746.7 280.3 800 310.3C853.3 340.3 906.7 350.7 933.3 355.8L960 361L960 541L933.3 541C906.7 541 853.3 541 800 541C746.7 541 693.3 541 640 541C586.7 541 533.3 541 480 541C426.7 541 373.3 541 320 541C266.7 541 213.3 541 160 541C106.7 541 53.3 541 26.7 541L0 541Z" fill="#5d8fc8" stroke-linecap="round" stroke-linejoin="miter"></path></svg>